<?xml version="1.0" encoding="UTF-8"?>
<svg xmlns="http://www.w3.org/2000/svg" width="184" height="48" viewBox="0 0 184 48" fill="none">
  <g clip-path="url(#clip0_439_162271)">
    <path d="M58.0442 37.0267C56.4928 36.3703 55.2619 35.4299 54.358 34.2054C53.454 32.9747 52.9924 31.523 52.9668 29.8504H58.9418C59.0187 30.9739 59.429 31.8638 60.1599 32.5202C60.8907 33.1766 61.8908 33.4985 63.1666 33.4985C64.4424 33.4985 65.4873 33.1893 66.231 32.577C66.9747 31.9648 67.3465 31.1569 67.3465 30.166C67.3465 29.3581 67.0965 28.6891 66.59 28.1652C66.0836 27.6413 65.4553 27.2311 64.6988 26.9281C63.9423 26.6252 62.8973 26.297 61.5703 25.9309C59.7624 25.407 58.2943 24.8895 57.166 24.3845C56.0376 23.8733 55.0696 23.1033 54.2554 22.0682C53.4476 21.0331 53.0373 19.6571 53.0373 17.9277C53.0373 16.3056 53.4476 14.8981 54.2746 13.6926C55.0952 12.4934 56.2492 11.5719 57.7429 10.9281C59.2303 10.2906 60.9292 9.96875 62.8396 9.96875C65.7053 9.96875 68.0389 10.6567 69.8275 12.0263C71.6162 13.396 72.6099 15.3147 72.7958 17.7699H66.6605C66.6092 16.8295 66.2054 16.0532 65.4425 15.4346C64.686 14.8224 63.6859 14.5131 62.4357 14.5131C61.3459 14.5131 60.4804 14.7845 59.8265 15.3336C59.1726 15.8828 58.852 16.678 58.852 17.7258C58.852 18.4579 59.0956 19.0638 59.5893 19.5498C60.0829 20.0358 60.692 20.4271 61.4228 20.7238C62.1536 21.0267 63.1794 21.3676 64.5129 21.7652C66.3208 22.2891 67.7953 22.8129 68.9364 23.3368C70.0776 23.8607 71.0584 24.6433 71.8854 25.691C72.706 26.7388 73.1227 28.1084 73.1227 29.8062C73.1227 31.2705 72.7381 32.6275 71.9688 33.8835C71.1995 35.1396 70.0711 36.1368 68.5838 36.8816C67.0965 37.6263 65.3271 37.9987 63.2884 37.9987C61.3523 37.9987 59.6021 37.6705 58.0507 37.0204L58.0442 37.0267Z" fill="black"></path>
    <path d="M75.7378 20.8595C76.6289 19.1616 77.8341 17.8551 79.3599 16.9399C80.8857 16.0248 82.5911 15.5703 84.4759 15.5703C86.1235 15.5703 87.5659 15.8985 88.7968 16.5486C90.0277 17.1987 91.0214 18.0255 91.7651 19.0165V15.9175H97.3811V37.6421H91.7651V34.4674C91.0471 35.4898 90.0598 36.3293 88.7968 36.9983C87.5339 37.6674 86.0786 37.9956 84.4374 37.9956C82.5782 37.9956 80.8857 37.5222 79.3599 36.5818C77.8341 35.6413 76.6225 34.3159 75.7378 32.5991C74.8467 30.8887 74.4043 28.9194 74.4043 26.6977C74.4043 24.476 74.8467 22.551 75.7378 20.8532V20.8595ZM90.9765 23.3526C90.4444 22.3995 89.7264 21.6674 88.8225 21.1561C87.9185 20.6449 86.9505 20.3924 85.9119 20.3924C84.8733 20.3924 83.9181 20.6386 83.0462 21.1372C82.1679 21.6358 81.4563 22.3616 80.9178 23.3147C80.3729 24.2677 80.1036 25.3975 80.1036 26.7104C80.1036 28.0232 80.3729 29.1593 80.9178 30.1439C81.4627 31.1222 82.1808 31.8796 83.0719 32.3971C83.963 32.921 84.9118 33.1798 85.9183 33.1798C86.9248 33.1798 87.9249 32.9273 88.8289 32.4161C89.7328 31.9048 90.4508 31.1727 90.983 30.2196C91.5151 29.2666 91.7779 28.1242 91.7779 26.7861C91.7779 25.448 91.5151 24.3119 90.983 23.3526H90.9765Z" fill="black"></path>
    <path d="M108.499 16.5676C109.762 15.8985 111.198 15.5703 112.82 15.5703C114.705 15.5703 116.41 16.0248 117.936 16.9399C119.462 17.8551 120.673 19.1553 121.558 20.8405C122.449 22.5257 122.891 24.4823 122.891 26.704C122.891 28.9257 122.449 30.895 121.558 32.6054C120.667 34.3159 119.462 35.6413 117.936 36.5881C116.41 37.5285 114.705 38.0019 112.82 38.0019C111.198 38.0019 109.775 37.6737 108.537 37.0236C107.3 36.3735 106.3 35.5466 105.531 34.5494V47.9995H99.9531V15.9175H105.531V19.0543C106.249 18.0634 107.236 17.2303 108.499 16.5612V16.5676ZM116.384 23.3147C115.839 22.3616 115.121 21.6358 114.23 21.1372C113.339 20.6386 112.377 20.3924 111.345 20.3924C110.313 20.3924 109.384 20.6449 108.499 21.1561C107.614 21.6674 106.89 22.4058 106.345 23.3715C105.8 24.3372 105.531 25.4733 105.531 26.7861C105.531 28.0989 105.8 29.2287 106.345 30.2007C106.89 31.1664 107.608 31.9048 108.499 32.4161C109.39 32.9273 110.339 33.1798 111.345 33.1798C112.352 33.1798 113.346 32.921 114.23 32.3971C115.121 31.8733 115.839 31.1285 116.384 30.1628C116.929 29.1971 117.199 28.0421 117.199 26.7104C117.199 25.3786 116.923 24.2741 116.384 23.3147Z" fill="black"></path>
    <path d="M141.713 16.685C143.015 17.4045 144.027 18.4648 144.758 19.8597C145.489 21.2609 145.855 22.9398 145.855 24.8964V37.6396H140.277V25.6412C140.277 23.9181 139.841 22.5863 138.963 21.6585C138.085 20.7307 136.892 20.2637 135.379 20.2637C133.866 20.2637 132.622 20.7307 131.731 21.6585C130.84 22.5863 130.398 23.9118 130.398 25.6412V37.6396H124.82V8.625H130.398V18.6226C131.116 17.6822 132.071 16.9437 133.264 16.4072C134.456 15.8708 135.789 15.6057 137.245 15.6057C138.918 15.6057 140.405 15.9654 141.707 16.685H141.713Z" fill="black"></path>
    <path d="M169.569 28.4349H153.433C153.568 30.0065 154.125 31.231 155.106 32.1209C156.087 33.0109 157.299 33.4527 158.728 33.4527C160.799 33.4527 162.274 32.5754 163.152 30.827H169.165C168.531 32.9162 167.306 34.6393 165.498 35.9836C163.69 37.328 161.472 38.0034 158.844 38.0034C156.722 38.0034 154.811 37.5363 153.125 36.6085C151.439 35.6807 150.125 34.3679 149.182 32.67C148.24 30.9722 147.766 29.0093 147.766 26.7876C147.766 24.5659 148.227 22.5651 149.157 20.8673C150.086 19.1694 151.388 17.8629 153.061 16.9478C154.734 16.0326 156.658 15.5781 158.837 15.5781C161.017 15.5781 162.812 16.0263 164.472 16.9099C166.133 17.7998 167.422 19.0621 168.338 20.6969C169.255 22.3316 169.71 24.2061 169.71 26.3268C169.71 27.1095 169.659 27.8164 169.55 28.4476L169.569 28.4349ZM163.953 24.7489C163.928 23.3351 163.408 22.2053 162.402 21.3533C161.389 20.5012 160.158 20.0783 158.696 20.0783C157.311 20.0783 156.151 20.4886 155.209 21.3154C154.266 22.1359 153.689 23.2846 153.478 24.7489H163.953Z" fill="black"></path>
    <path d="M180.032 16.5877C181.186 15.9313 182.507 15.6094 183.994 15.6094V21.3719H182.519C180.769 21.3719 179.442 21.7758 178.557 22.59C177.666 23.3979 177.224 24.8117 177.224 26.8252V37.6496H171.646V15.9186H177.224V19.2891C177.942 18.1403 178.878 17.2378 180.032 16.5814V16.5877Z" fill="black"></path>
    <path d="M44.2683 2.06483C44.3003 1.85654 44.3003 1.64195 44.249 1.42735C44.0631 0.550035 43.2361 -0.074817 42.3257 0.00723427C41.4218 0.0892855 40.723 0.871929 40.7038 1.76818C40.7038 1.98278 40.614 2.9737 39.5049 4.13505L37.524 3.53544C27.4716 0.49323 16.8487 0.49323 6.79638 3.53544L4.78976 4.14136C3.68067 2.9737 3.59092 1.98278 3.58451 1.77449C3.57169 0.87824 2.86649 0.0955972 1.96254 0.0135459C1.0586 -0.0685054 0.225184 0.562658 0.0392669 1.43366C-0.00560956 1.64826 -0.0120205 1.86286 0.0200341 2.06483C0.0713216 2.86641 0.346991 4.24234 1.46249 5.72558V9.92913C1.46249 10.0427 1.44326 10.3394 1.46249 10.7812V26.9453C1.44967 27.6206 1.48814 34.4435 8.71325 39.2467C15.4319 43.709 21.1248 47.3445 21.1825 47.3761L22.157 47.9946L23.1314 47.3761C23.1891 47.3382 28.8884 43.7027 35.6007 39.2467C42.8258 34.4498 42.8643 27.6206 42.8514 26.9453V5.6814C43.9349 4.2171 44.2106 2.86641 44.2683 2.06483ZM35.4212 6.6029C34.0428 7.12045 32.3055 7.58751 30.1193 7.94096C27.9589 8.22499 24.3431 9.66404 22.157 13.0786C19.9773 9.68297 16.3743 8.24392 14.201 7.94727C12.0021 7.59382 10.2647 7.12676 8.87994 6.60921C17.586 4.17292 26.7151 4.17292 35.4212 6.60921V6.6029ZM22.157 43.8037C20.2529 42.5792 15.7717 39.6948 10.7135 36.3307C4.97568 32.5185 5.03338 27.2483 5.03979 27.04V20.9808C6.60406 23.2656 8.84147 25.6262 12.0533 27.7911C19.5605 32.853 26.1125 36.9934 29.4462 39.07C26.1894 41.2096 23.5161 42.9327 22.157 43.8037ZM33.6005 36.3307C33.2992 36.5327 32.9978 36.7283 32.7029 36.924C30.1322 35.3335 22.7468 30.7323 14.0728 24.8814C6.12324 19.5228 5.14236 12.9145 5.03979 10.7938V8.71729C7.02718 9.82814 9.79029 10.8128 13.6433 11.4313C13.6625 11.4313 13.6753 11.4313 13.6945 11.4376C13.7074 11.4376 15.2139 11.6585 16.7974 12.6558C18.913 13.9875 20.1183 16.0451 20.3683 18.7717C20.4517 19.6806 21.2274 20.3686 22.1506 20.3686C23.0737 20.3686 23.8495 19.6743 23.9328 18.7717C24.5354 12.378 30.3501 11.4629 30.6386 11.425C34.5108 10.8001 37.2803 9.81552 39.2741 8.69205V27.0274C39.2741 27.2483 39.3382 32.5185 33.6005 36.3307Z" fill="black"></path>
  </g>
  <defs>
    <clipPath id="clip0_439_162271">
      <rect width="184" height="48" fill="white"></rect>
    </clipPath>
  </defs>
</svg>
